<mxfile host="app.diagrams.net" modified="2023-12-01T23:03:13.561Z" agent="Mozilla/5.0 (Windows NT 10.0; Win64; x64) AppleWebKit/537.36 (KHTML, like Gecko) Chrome/119.0.0.0 Safari/537.36" etag="lUwUql8sb2mU5yTqnI82" version="22.1.5" type="github">
  <diagram name="Page-1" id="esr7c8V9Vkb_bE5ZoR3p">
    <mxGraphModel dx="4477" dy="3697" grid="1" gridSize="10" guides="1" tooltips="1" connect="1" arrows="1" fold="1" page="1" pageScale="1" pageWidth="850" pageHeight="1100" math="0" shadow="0">
      <root>
        <mxCell id="0" />
        <mxCell id="1" parent="0" />
        <mxCell id="NqYPr9nM4gvlLxXtL_qy-1" value="Nhân viên Kho" style="shape=umlActor;verticalLabelPosition=bottom;verticalAlign=top;html=1;" parent="1" vertex="1">
          <mxGeometry x="120.02" y="70" width="30" height="60" as="geometry" />
        </mxCell>
        <mxCell id="NqYPr9nM4gvlLxXtL_qy-6" value="" style="rounded=0;whiteSpace=wrap;html=1;glass=0;strokeWidth=1;strokeColor=#000000;shadow=0;" parent="1" vertex="1">
          <mxGeometry x="300" y="-680" width="1170" height="2740" as="geometry" />
        </mxCell>
        <mxCell id="NqYPr9nM4gvlLxXtL_qy-7" value="Quản lý kho" style="shape=umlActor;verticalLabelPosition=bottom;verticalAlign=top;html=1;outlineConnect=0;" parent="1" vertex="1">
          <mxGeometry x="140" y="685" width="30" height="60" as="geometry" />
        </mxCell>
        <mxCell id="NqYPr9nM4gvlLxXtL_qy-24" value="Quản lý sản phẩm" style="ellipse;whiteSpace=wrap;html=1;" parent="1" vertex="1">
          <mxGeometry x="510" y="970" width="140" height="70" as="geometry" />
        </mxCell>
        <mxCell id="NqYPr9nM4gvlLxXtL_qy-26" value="" style="endArrow=none;html=1;rounded=0;exitX=0.5;exitY=0.5;exitDx=0;exitDy=0;exitPerimeter=0;entryX=0;entryY=0.5;entryDx=0;entryDy=0;" parent="1" source="NqYPr9nM4gvlLxXtL_qy-1" target="NqYPr9nM4gvlLxXtL_qy-64" edge="1">
          <mxGeometry width="50" height="50" relative="1" as="geometry">
            <mxPoint x="310" y="285" as="sourcePoint" />
            <mxPoint x="605" y="265" as="targetPoint" />
          </mxGeometry>
        </mxCell>
        <mxCell id="NqYPr9nM4gvlLxXtL_qy-27" value="Quản lý nhân viên" style="ellipse;whiteSpace=wrap;html=1;" parent="1" vertex="1">
          <mxGeometry x="490" y="1550" width="140" height="70" as="geometry" />
        </mxCell>
        <mxCell id="NqYPr9nM4gvlLxXtL_qy-32" value="" style="endArrow=none;html=1;rounded=0;entryX=0;entryY=0.5;entryDx=0;entryDy=0;exitX=0.5;exitY=0.5;exitDx=0;exitDy=0;exitPerimeter=0;" parent="1" source="NqYPr9nM4gvlLxXtL_qy-7" target="NqYPr9nM4gvlLxXtL_qy-27" edge="1">
          <mxGeometry width="50" height="50" relative="1" as="geometry">
            <mxPoint x="240" y="800" as="sourcePoint" />
            <mxPoint x="455" y="925" as="targetPoint" />
          </mxGeometry>
        </mxCell>
        <mxCell id="NqYPr9nM4gvlLxXtL_qy-33" value="Thêm nhân viên" style="ellipse;whiteSpace=wrap;html=1;" parent="1" vertex="1">
          <mxGeometry x="740" y="1560" width="140" height="70" as="geometry" />
        </mxCell>
        <mxCell id="NqYPr9nM4gvlLxXtL_qy-34" value="Thay đổi thông tin nhân viên" style="ellipse;whiteSpace=wrap;html=1;" parent="1" vertex="1">
          <mxGeometry x="770" y="1700" width="140" height="70" as="geometry" />
        </mxCell>
        <mxCell id="NqYPr9nM4gvlLxXtL_qy-37" value="&amp;lt;&amp;lt;extend&amp;gt;&amp;gt;" style="html=1;verticalAlign=bottom;labelBackgroundColor=none;endArrow=open;endFill=0;dashed=1;rounded=0;entryX=1;entryY=0.5;entryDx=0;entryDy=0;exitX=0;exitY=0.5;exitDx=0;exitDy=0;" parent="1" source="NqYPr9nM4gvlLxXtL_qy-33" target="NqYPr9nM4gvlLxXtL_qy-27" edge="1">
          <mxGeometry width="160" relative="1" as="geometry">
            <mxPoint x="430" y="950" as="sourcePoint" />
            <mxPoint x="590" y="950" as="targetPoint" />
          </mxGeometry>
        </mxCell>
        <mxCell id="NqYPr9nM4gvlLxXtL_qy-38" value="&amp;lt;&amp;lt;extend&amp;gt;&amp;gt;" style="html=1;verticalAlign=bottom;labelBackgroundColor=none;endArrow=open;endFill=0;dashed=1;rounded=0;entryX=1;entryY=0.5;entryDx=0;entryDy=0;exitX=0;exitY=0.5;exitDx=0;exitDy=0;" parent="1" source="NqYPr9nM4gvlLxXtL_qy-34" target="NqYPr9nM4gvlLxXtL_qy-27" edge="1">
          <mxGeometry width="160" relative="1" as="geometry">
            <mxPoint x="680" y="945" as="sourcePoint" />
            <mxPoint x="490" y="905" as="targetPoint" />
          </mxGeometry>
        </mxCell>
        <mxCell id="NqYPr9nM4gvlLxXtL_qy-41" value="Tạo tài khoản đăng nhập" style="ellipse;whiteSpace=wrap;html=1;" parent="1" vertex="1">
          <mxGeometry x="1010" y="1560" width="140" height="70" as="geometry" />
        </mxCell>
        <mxCell id="NqYPr9nM4gvlLxXtL_qy-42" value="&amp;lt;&amp;lt;include&amp;gt;&amp;gt;" style="html=1;verticalAlign=bottom;labelBackgroundColor=none;endArrow=open;endFill=0;dashed=1;rounded=0;entryX=0;entryY=0.5;entryDx=0;entryDy=0;exitX=1;exitY=0.5;exitDx=0;exitDy=0;" parent="1" source="NqYPr9nM4gvlLxXtL_qy-33" target="NqYPr9nM4gvlLxXtL_qy-41" edge="1">
          <mxGeometry width="160" relative="1" as="geometry">
            <mxPoint x="550" y="910" as="sourcePoint" />
            <mxPoint x="710" y="910" as="targetPoint" />
          </mxGeometry>
        </mxCell>
        <mxCell id="NqYPr9nM4gvlLxXtL_qy-46" value="Reset mật khẩu" style="ellipse;whiteSpace=wrap;html=1;" parent="1" vertex="1">
          <mxGeometry x="988.75" y="1730" width="140" height="70" as="geometry" />
        </mxCell>
        <mxCell id="NqYPr9nM4gvlLxXtL_qy-47" value="&amp;lt;&amp;lt;extend&amp;gt;&amp;gt;" style="html=1;verticalAlign=bottom;labelBackgroundColor=none;endArrow=open;endFill=0;dashed=1;rounded=0;exitX=0;exitY=0.5;exitDx=0;exitDy=0;entryX=1;entryY=0.5;entryDx=0;entryDy=0;" parent="1" source="NqYPr9nM4gvlLxXtL_qy-46" target="NqYPr9nM4gvlLxXtL_qy-34" edge="1">
          <mxGeometry width="160" relative="1" as="geometry">
            <mxPoint x="560" y="1020" as="sourcePoint" />
            <mxPoint x="720" y="1020" as="targetPoint" />
          </mxGeometry>
        </mxCell>
        <mxCell id="NqYPr9nM4gvlLxXtL_qy-49" value="Thêm sản phẩm" style="ellipse;whiteSpace=wrap;html=1;" parent="1" vertex="1">
          <mxGeometry x="1160" y="1000" width="140" height="70" as="geometry" />
        </mxCell>
        <mxCell id="NqYPr9nM4gvlLxXtL_qy-50" value="Sửa sản phẩm" style="ellipse;whiteSpace=wrap;html=1;" parent="1" vertex="1">
          <mxGeometry x="1200" y="1110" width="140" height="70" as="geometry" />
        </mxCell>
        <mxCell id="NqYPr9nM4gvlLxXtL_qy-55" style="edgeStyle=orthogonalEdgeStyle;rounded=0;orthogonalLoop=1;jettySize=auto;html=1;exitX=0.5;exitY=0;exitDx=0;exitDy=0;exitPerimeter=0;entryX=0.5;entryY=0.5;entryDx=0;entryDy=0;entryPerimeter=0;" parent="1" source="NqYPr9nM4gvlLxXtL_qy-7" target="NqYPr9nM4gvlLxXtL_qy-1" edge="1">
          <mxGeometry relative="1" as="geometry">
            <Array as="points">
              <mxPoint x="150" y="685" />
              <mxPoint x="150" y="100" />
            </Array>
          </mxGeometry>
        </mxCell>
        <mxCell id="NqYPr9nM4gvlLxXtL_qy-58" value="&amp;lt;&amp;lt;extend&amp;gt;&amp;gt;" style="html=1;verticalAlign=bottom;labelBackgroundColor=none;endArrow=open;endFill=0;dashed=1;rounded=0;entryX=1;entryY=0.5;entryDx=0;entryDy=0;exitX=0;exitY=0.5;exitDx=0;exitDy=0;" parent="1" source="NqYPr9nM4gvlLxXtL_qy-49" target="NqYPr9nM4gvlLxXtL_qy-24" edge="1">
          <mxGeometry x="0.0003" width="160" relative="1" as="geometry">
            <mxPoint x="760" y="425" as="sourcePoint" />
            <mxPoint x="550" y="635" as="targetPoint" />
            <mxPoint as="offset" />
          </mxGeometry>
        </mxCell>
        <mxCell id="NqYPr9nM4gvlLxXtL_qy-59" value="&amp;lt;&amp;lt;extend&amp;gt;&amp;gt;" style="html=1;verticalAlign=bottom;labelBackgroundColor=none;endArrow=open;endFill=0;dashed=1;rounded=0;entryX=1;entryY=0.5;entryDx=0;entryDy=0;exitX=0;exitY=0.5;exitDx=0;exitDy=0;" parent="1" source="NqYPr9nM4gvlLxXtL_qy-50" target="NqYPr9nM4gvlLxXtL_qy-24" edge="1">
          <mxGeometry width="160" relative="1" as="geometry">
            <mxPoint x="700" y="575" as="sourcePoint" />
            <mxPoint x="550" y="635" as="targetPoint" />
          </mxGeometry>
        </mxCell>
        <mxCell id="NqYPr9nM4gvlLxXtL_qy-63" value="Nhập kho" style="ellipse;whiteSpace=wrap;html=1;" parent="1" vertex="1">
          <mxGeometry x="735" y="-90" width="140" height="70" as="geometry" />
        </mxCell>
        <mxCell id="NqYPr9nM4gvlLxXtL_qy-64" value="Xuất kho&amp;nbsp;" style="ellipse;whiteSpace=wrap;html=1;" parent="1" vertex="1">
          <mxGeometry x="730" y="-270" width="140" height="70" as="geometry" />
        </mxCell>
        <mxCell id="NqYPr9nM4gvlLxXtL_qy-66" value="Quản lý tài khoản cá nhân" style="ellipse;whiteSpace=wrap;html=1;" parent="1" vertex="1">
          <mxGeometry x="610" y="500" width="140" height="70" as="geometry" />
        </mxCell>
        <mxCell id="NqYPr9nM4gvlLxXtL_qy-67" value="Xem báo cáo" style="ellipse;whiteSpace=wrap;html=1;" parent="1" vertex="1">
          <mxGeometry x="510" y="300" width="140" height="70" as="geometry" />
        </mxCell>
        <mxCell id="NqYPr9nM4gvlLxXtL_qy-69" value="Quản lý loại sản phẩm" style="ellipse;whiteSpace=wrap;html=1;" parent="1" vertex="1">
          <mxGeometry x="555" y="1270" width="140" height="70" as="geometry" />
        </mxCell>
        <mxCell id="NqYPr9nM4gvlLxXtL_qy-70" value="" style="endArrow=none;html=1;rounded=0;entryX=0;entryY=0.5;entryDx=0;entryDy=0;" parent="1" target="NqYPr9nM4gvlLxXtL_qy-69" edge="1">
          <mxGeometry width="50" height="50" relative="1" as="geometry">
            <mxPoint x="140" y="720" as="sourcePoint" />
            <mxPoint x="440" y="705" as="targetPoint" />
          </mxGeometry>
        </mxCell>
        <mxCell id="NqYPr9nM4gvlLxXtL_qy-72" value="Thêm loại sản phẩm&amp;nbsp;" style="ellipse;whiteSpace=wrap;html=1;" parent="1" vertex="1">
          <mxGeometry x="750" y="1450" width="140" height="70" as="geometry" />
        </mxCell>
        <mxCell id="NqYPr9nM4gvlLxXtL_qy-74" value="Xem Loại sản phẩm" style="ellipse;whiteSpace=wrap;html=1;" parent="1" vertex="1">
          <mxGeometry x="870" y="1410" width="140" height="70" as="geometry" />
        </mxCell>
        <mxCell id="NqYPr9nM4gvlLxXtL_qy-77" value="&amp;lt;&amp;lt;extend&amp;gt;&amp;gt;" style="html=1;verticalAlign=bottom;labelBackgroundColor=none;endArrow=open;endFill=0;dashed=1;rounded=0;entryX=1;entryY=0.5;entryDx=0;entryDy=0;exitX=0;exitY=0.5;exitDx=0;exitDy=0;" parent="1" source="NqYPr9nM4gvlLxXtL_qy-74" target="NqYPr9nM4gvlLxXtL_qy-69" edge="1">
          <mxGeometry width="160" relative="1" as="geometry">
            <mxPoint x="530" y="1070" as="sourcePoint" />
            <mxPoint x="690" y="1070" as="targetPoint" />
          </mxGeometry>
        </mxCell>
        <mxCell id="NqYPr9nM4gvlLxXtL_qy-80" value="&amp;lt;&amp;lt;extend&amp;gt;&amp;gt;" style="html=1;verticalAlign=bottom;labelBackgroundColor=none;endArrow=open;endFill=0;dashed=1;rounded=0;exitX=0;exitY=0.5;exitDx=0;exitDy=0;entryX=1;entryY=0.5;entryDx=0;entryDy=0;" parent="1" source="NqYPr9nM4gvlLxXtL_qy-72" target="NqYPr9nM4gvlLxXtL_qy-69" edge="1">
          <mxGeometry width="160" relative="1" as="geometry">
            <mxPoint x="720" y="1075" as="sourcePoint" />
            <mxPoint x="620" y="940" as="targetPoint" />
          </mxGeometry>
        </mxCell>
        <mxCell id="NqYPr9nM4gvlLxXtL_qy-83" value="" style="endArrow=none;html=1;rounded=0;exitX=0.5;exitY=0.5;exitDx=0;exitDy=0;exitPerimeter=0;entryX=0;entryY=0.5;entryDx=0;entryDy=0;" parent="1" source="NqYPr9nM4gvlLxXtL_qy-1" target="NqYPr9nM4gvlLxXtL_qy-63" edge="1">
          <mxGeometry width="50" height="50" relative="1" as="geometry">
            <mxPoint x="340.02" y="295" as="sourcePoint" />
            <mxPoint x="700" y="50" as="targetPoint" />
          </mxGeometry>
        </mxCell>
        <mxCell id="NqYPr9nM4gvlLxXtL_qy-84" value="" style="endArrow=none;html=1;rounded=0;exitX=0.5;exitY=0.5;exitDx=0;exitDy=0;exitPerimeter=0;entryX=0;entryY=0.5;entryDx=0;entryDy=0;" parent="1" source="NqYPr9nM4gvlLxXtL_qy-1" target="NqYPr9nM4gvlLxXtL_qy-67" edge="1">
          <mxGeometry width="50" height="50" relative="1" as="geometry">
            <mxPoint x="330" y="305" as="sourcePoint" />
            <mxPoint x="625" y="285" as="targetPoint" />
          </mxGeometry>
        </mxCell>
        <mxCell id="NqYPr9nM4gvlLxXtL_qy-87" value="" style="endArrow=none;html=1;rounded=0;entryX=0;entryY=0.5;entryDx=0;entryDy=0;exitX=0.5;exitY=0.5;exitDx=0;exitDy=0;exitPerimeter=0;" parent="1" source="NqYPr9nM4gvlLxXtL_qy-1" target="NqYPr9nM4gvlLxXtL_qy-66" edge="1">
          <mxGeometry width="50" height="50" relative="1" as="geometry">
            <mxPoint x="180" y="390" as="sourcePoint" />
            <mxPoint x="655" y="315" as="targetPoint" />
          </mxGeometry>
        </mxCell>
        <mxCell id="NqYPr9nM4gvlLxXtL_qy-90" value="Quên Mật Khẩu" style="ellipse;whiteSpace=wrap;html=1;" parent="1" vertex="1">
          <mxGeometry x="530" y="630" width="140" height="70" as="geometry" />
        </mxCell>
        <mxCell id="NqYPr9nM4gvlLxXtL_qy-94" value="" style="endArrow=none;html=1;rounded=0;entryX=0;entryY=0.5;entryDx=0;entryDy=0;exitX=0.5;exitY=0.5;exitDx=0;exitDy=0;exitPerimeter=0;" parent="1" source="NqYPr9nM4gvlLxXtL_qy-7" target="NqYPr9nM4gvlLxXtL_qy-24" edge="1">
          <mxGeometry width="50" height="50" relative="1" as="geometry">
            <mxPoint x="220" y="492.5" as="sourcePoint" />
            <mxPoint x="540" y="697.5" as="targetPoint" />
          </mxGeometry>
        </mxCell>
        <mxCell id="NqYPr9nM4gvlLxXtL_qy-95" value="Đăng nhập" style="ellipse;whiteSpace=wrap;html=1;" parent="1" vertex="1">
          <mxGeometry x="520" y="770" width="140" height="70" as="geometry" />
        </mxCell>
        <mxCell id="NqYPr9nM4gvlLxXtL_qy-97" value="" style="endArrow=none;html=1;rounded=0;entryX=0;entryY=0.5;entryDx=0;entryDy=0;exitX=0.5;exitY=0.5;exitDx=0;exitDy=0;exitPerimeter=0;" parent="1" source="NqYPr9nM4gvlLxXtL_qy-1" target="NqYPr9nM4gvlLxXtL_qy-95" edge="1">
          <mxGeometry width="50" height="50" relative="1" as="geometry">
            <mxPoint x="145" y="725" as="sourcePoint" />
            <mxPoint x="430" y="585" as="targetPoint" />
          </mxGeometry>
        </mxCell>
        <mxCell id="NqYPr9nM4gvlLxXtL_qy-105" value="Danh sách các sản phẩm được xuất kho nhiều nhất" style="ellipse;whiteSpace=wrap;html=1;" parent="1" vertex="1">
          <mxGeometry x="860" y="170" width="180" height="90" as="geometry" />
        </mxCell>
        <mxCell id="NqYPr9nM4gvlLxXtL_qy-106" value="Danh sách các sản phẩm được nhập kho nhiều nhất" style="ellipse;whiteSpace=wrap;html=1;" parent="1" vertex="1">
          <mxGeometry x="900" y="270" width="140" height="70" as="geometry" />
        </mxCell>
        <mxCell id="NqYPr9nM4gvlLxXtL_qy-107" value="Danh Sách Sản phẩm&lt;br style=&quot;border-color: var(--border-color); font-size: 11px;&quot;&gt;&lt;span style=&quot;border-color: var(--border-color); font-size: 11px;&quot;&gt;cần thêm hàng vào kho&lt;/span&gt;" style="ellipse;whiteSpace=wrap;html=1;" parent="1" vertex="1">
          <mxGeometry x="915" y="360" width="165" height="70" as="geometry" />
        </mxCell>
        <mxCell id="NqYPr9nM4gvlLxXtL_qy-109" value="Xem tồn kho" style="ellipse;whiteSpace=wrap;html=1;" parent="1" vertex="1">
          <mxGeometry x="675" y="-520" width="140" height="70" as="geometry" />
        </mxCell>
        <mxCell id="NqYPr9nM4gvlLxXtL_qy-110" value="" style="endArrow=none;html=1;rounded=0;exitX=0.5;exitY=0.5;exitDx=0;exitDy=0;exitPerimeter=0;entryX=0;entryY=0.5;entryDx=0;entryDy=0;" parent="1" source="NqYPr9nM4gvlLxXtL_qy-1" target="NqYPr9nM4gvlLxXtL_qy-109" edge="1">
          <mxGeometry width="50" height="50" relative="1" as="geometry">
            <mxPoint x="145" y="110" as="sourcePoint" />
            <mxPoint x="670" y="-195" as="targetPoint" />
          </mxGeometry>
        </mxCell>
        <mxCell id="NqYPr9nM4gvlLxXtL_qy-112" value="&amp;lt;&amp;lt;extend&amp;gt;&amp;gt;" style="html=1;verticalAlign=bottom;labelBackgroundColor=none;endArrow=open;endFill=0;dashed=1;rounded=0;entryX=1;entryY=0.5;entryDx=0;entryDy=0;exitX=0;exitY=0.5;exitDx=0;exitDy=0;" parent="1" source="NqYPr9nM4gvlLxXtL_qy-107" target="NqYPr9nM4gvlLxXtL_qy-67" edge="1">
          <mxGeometry width="160" relative="1" as="geometry">
            <mxPoint x="1090" y="-95" as="sourcePoint" />
            <mxPoint x="815" y="35" as="targetPoint" />
          </mxGeometry>
        </mxCell>
        <mxCell id="NqYPr9nM4gvlLxXtL_qy-113" value="&amp;lt;&amp;lt;extend&amp;gt;&amp;gt;" style="html=1;verticalAlign=bottom;labelBackgroundColor=none;endArrow=open;endFill=0;dashed=1;rounded=0;entryX=1;entryY=0.5;entryDx=0;entryDy=0;exitX=0;exitY=0.5;exitDx=0;exitDy=0;" parent="1" source="NqYPr9nM4gvlLxXtL_qy-106" target="NqYPr9nM4gvlLxXtL_qy-67" edge="1">
          <mxGeometry width="160" relative="1" as="geometry">
            <mxPoint x="1100" y="-85" as="sourcePoint" />
            <mxPoint x="825" y="45" as="targetPoint" />
          </mxGeometry>
        </mxCell>
        <mxCell id="NqYPr9nM4gvlLxXtL_qy-114" value="&amp;lt;&amp;lt;extend&amp;gt;&amp;gt;" style="html=1;verticalAlign=bottom;labelBackgroundColor=none;endArrow=open;endFill=0;dashed=1;rounded=0;entryX=1;entryY=0.5;entryDx=0;entryDy=0;exitX=0;exitY=0.5;exitDx=0;exitDy=0;" parent="1" source="NqYPr9nM4gvlLxXtL_qy-105" target="NqYPr9nM4gvlLxXtL_qy-67" edge="1">
          <mxGeometry width="160" relative="1" as="geometry">
            <mxPoint x="1110" y="-75" as="sourcePoint" />
            <mxPoint x="835" y="55" as="targetPoint" />
          </mxGeometry>
        </mxCell>
        <mxCell id="NqYPr9nM4gvlLxXtL_qy-118" value="&lt;font style=&quot;font-size: 16px;&quot;&gt;Sơ đồ use case tổng quát&lt;/font&gt;" style="text;html=1;align=center;verticalAlign=middle;resizable=0;points=[];autosize=1;strokeColor=none;fillColor=none;" parent="1" vertex="1">
          <mxGeometry x="790" y="-670" width="210" height="30" as="geometry" />
        </mxCell>
        <mxCell id="CfH61lomtQ87uOwbVgtj-1" value="Danh Sách Sản phẩm&lt;br style=&quot;border-color: var(--border-color); font-size: 11px;&quot;&gt;&lt;span style=&quot;font-size: 11px; background-color: rgb(255, 255, 255);&quot;&gt;có số lượng tồn kho lớn&lt;/span&gt;" style="ellipse;whiteSpace=wrap;html=1;" parent="1" vertex="1">
          <mxGeometry x="900" y="450" width="120" height="80" as="geometry" />
        </mxCell>
        <mxCell id="CfH61lomtQ87uOwbVgtj-2" value="&amp;lt;&amp;lt;extend&amp;gt;&amp;gt;" style="html=1;verticalAlign=bottom;labelBackgroundColor=none;endArrow=open;endFill=0;dashed=1;rounded=0;exitX=0;exitY=0.5;exitDx=0;exitDy=0;entryX=1;entryY=1;entryDx=0;entryDy=0;" parent="1" source="CfH61lomtQ87uOwbVgtj-1" target="NqYPr9nM4gvlLxXtL_qy-67" edge="1">
          <mxGeometry width="160" relative="1" as="geometry">
            <mxPoint x="790" y="110" as="sourcePoint" />
            <mxPoint x="820" y="20" as="targetPoint" />
          </mxGeometry>
        </mxCell>
        <mxCell id="CfH61lomtQ87uOwbVgtj-3" value="Chọn vị trị để hàng" style="ellipse;whiteSpace=wrap;html=1;" parent="1" vertex="1">
          <mxGeometry x="1092.5" y="-70" width="127.5" height="85" as="geometry" />
        </mxCell>
        <mxCell id="CfH61lomtQ87uOwbVgtj-4" value="Ghi nhận lại thông tin nhập kho" style="ellipse;whiteSpace=wrap;html=1;" parent="1" vertex="1">
          <mxGeometry x="1145" y="30" width="130" height="80" as="geometry" />
        </mxCell>
        <mxCell id="CfH61lomtQ87uOwbVgtj-6" value="Chọn vị trị để xuất hàng" style="ellipse;whiteSpace=wrap;html=1;" parent="1" vertex="1">
          <mxGeometry x="1200" y="-300" width="120" height="80" as="geometry" />
        </mxCell>
        <mxCell id="CfH61lomtQ87uOwbVgtj-7" value="Ghi nhận lại thông tin xuất kho" style="ellipse;whiteSpace=wrap;html=1;" parent="1" vertex="1">
          <mxGeometry x="1280" y="-430" width="130" height="80" as="geometry" />
        </mxCell>
        <mxCell id="CfH61lomtQ87uOwbVgtj-9" value="Nhận email reset mật khẩu" style="ellipse;whiteSpace=wrap;html=1;" parent="1" vertex="1">
          <mxGeometry x="915" y="675" width="140" height="70" as="geometry" />
        </mxCell>
        <mxCell id="CfH61lomtQ87uOwbVgtj-11" value="Gửi email reset mật khẩu" style="ellipse;whiteSpace=wrap;html=1;" parent="1" vertex="1">
          <mxGeometry x="1220" y="1720" width="140" height="70" as="geometry" />
        </mxCell>
        <mxCell id="CfH61lomtQ87uOwbVgtj-12" value="&amp;lt;&amp;lt;include&amp;gt;&amp;gt;" style="html=1;verticalAlign=bottom;labelBackgroundColor=none;endArrow=open;endFill=0;dashed=1;rounded=0;exitX=1;exitY=0.5;exitDx=0;exitDy=0;entryX=0;entryY=0.5;entryDx=0;entryDy=0;" parent="1" source="NqYPr9nM4gvlLxXtL_qy-46" target="CfH61lomtQ87uOwbVgtj-11" edge="1">
          <mxGeometry width="160" relative="1" as="geometry">
            <mxPoint x="750" y="1570" as="sourcePoint" />
            <mxPoint x="910" y="1570" as="targetPoint" />
          </mxGeometry>
        </mxCell>
        <mxCell id="CfH61lomtQ87uOwbVgtj-13" value="&amp;lt;&amp;lt;include&amp;gt;&amp;gt;" style="html=1;verticalAlign=bottom;labelBackgroundColor=none;endArrow=open;endFill=0;dashed=1;rounded=0;entryX=0;entryY=0.5;entryDx=0;entryDy=0;exitX=1;exitY=0.5;exitDx=0;exitDy=0;" parent="1" source="NqYPr9nM4gvlLxXtL_qy-90" target="CfH61lomtQ87uOwbVgtj-9" edge="1">
          <mxGeometry width="160" relative="1" as="geometry">
            <mxPoint x="730" y="360" as="sourcePoint" />
            <mxPoint x="890" y="360" as="targetPoint" />
          </mxGeometry>
        </mxCell>
        <mxCell id="CfH61lomtQ87uOwbVgtj-14" value="Cập nhật lại số lượng và vị trí hàng hóa trong kho" style="ellipse;whiteSpace=wrap;html=1;" parent="1" vertex="1">
          <mxGeometry x="1120" y="-200" width="140" height="70" as="geometry" />
        </mxCell>
        <mxCell id="CfH61lomtQ87uOwbVgtj-17" value="&amp;lt;&amp;lt;include&amp;gt;&amp;gt;" style="html=1;verticalAlign=bottom;labelBackgroundColor=none;endArrow=open;endFill=0;dashed=1;rounded=0;entryX=0;entryY=0.5;entryDx=0;entryDy=0;exitX=1;exitY=0.5;exitDx=0;exitDy=0;" parent="1" source="NqYPr9nM4gvlLxXtL_qy-63" target="CfH61lomtQ87uOwbVgtj-3" edge="1">
          <mxGeometry width="160" relative="1" as="geometry">
            <mxPoint x="780" y="-140" as="sourcePoint" />
            <mxPoint x="940" y="-140" as="targetPoint" />
          </mxGeometry>
        </mxCell>
        <mxCell id="CfH61lomtQ87uOwbVgtj-18" value="&amp;lt;&amp;lt;include&amp;gt;&amp;gt;" style="html=1;verticalAlign=bottom;labelBackgroundColor=none;endArrow=open;endFill=0;dashed=1;rounded=0;entryX=0;entryY=0.5;entryDx=0;entryDy=0;exitX=1;exitY=0.5;exitDx=0;exitDy=0;" parent="1" source="NqYPr9nM4gvlLxXtL_qy-63" target="CfH61lomtQ87uOwbVgtj-4" edge="1">
          <mxGeometry width="160" relative="1" as="geometry">
            <mxPoint x="890" y="-95" as="sourcePoint" />
            <mxPoint x="1026" y="-32" as="targetPoint" />
          </mxGeometry>
        </mxCell>
        <mxCell id="CfH61lomtQ87uOwbVgtj-21" value="&amp;lt;&amp;lt;include&amp;gt;&amp;gt;" style="html=1;verticalAlign=bottom;labelBackgroundColor=none;endArrow=open;endFill=0;dashed=1;rounded=0;entryX=0;entryY=0.5;entryDx=0;entryDy=0;exitX=1;exitY=0;exitDx=0;exitDy=0;" parent="1" source="NqYPr9nM4gvlLxXtL_qy-63" target="CfH61lomtQ87uOwbVgtj-14" edge="1">
          <mxGeometry width="160" relative="1" as="geometry">
            <mxPoint x="780" y="-280" as="sourcePoint" />
            <mxPoint x="940" y="-280" as="targetPoint" />
          </mxGeometry>
        </mxCell>
        <mxCell id="CfH61lomtQ87uOwbVgtj-22" value="&amp;lt;&amp;lt;include&amp;gt;&amp;gt;" style="html=1;verticalAlign=bottom;labelBackgroundColor=none;endArrow=open;endFill=0;dashed=1;rounded=0;entryX=0;entryY=0.5;entryDx=0;entryDy=0;exitX=1;exitY=0.5;exitDx=0;exitDy=0;" parent="1" source="NqYPr9nM4gvlLxXtL_qy-64" target="CfH61lomtQ87uOwbVgtj-14" edge="1">
          <mxGeometry width="160" relative="1" as="geometry">
            <mxPoint x="780" y="-420" as="sourcePoint" />
            <mxPoint x="940" y="-420" as="targetPoint" />
          </mxGeometry>
        </mxCell>
        <mxCell id="CfH61lomtQ87uOwbVgtj-24" value="&amp;lt;&amp;lt;include&amp;gt;&amp;gt;" style="html=1;verticalAlign=bottom;labelBackgroundColor=none;endArrow=open;endFill=0;dashed=1;rounded=0;entryX=0;entryY=0;entryDx=0;entryDy=0;exitX=1;exitY=0.5;exitDx=0;exitDy=0;" parent="1" source="NqYPr9nM4gvlLxXtL_qy-64" target="CfH61lomtQ87uOwbVgtj-6" edge="1">
          <mxGeometry width="160" relative="1" as="geometry">
            <mxPoint x="840" y="-225" as="sourcePoint" />
            <mxPoint x="1100" y="-135" as="targetPoint" />
          </mxGeometry>
        </mxCell>
        <mxCell id="CfH61lomtQ87uOwbVgtj-27" value="Xem hàng trong các ô trong kho" style="ellipse;whiteSpace=wrap;html=1;" parent="1" vertex="1">
          <mxGeometry x="1060" y="-620" width="140" height="70" as="geometry" />
        </mxCell>
        <mxCell id="ZsmSoKCuxxcDKjJ6YvJv-2" value="&amp;lt;&amp;lt;include&amp;gt;&amp;gt;" style="html=1;verticalAlign=bottom;labelBackgroundColor=none;endArrow=open;endFill=0;dashed=1;rounded=0;entryX=0;entryY=0.5;entryDx=0;entryDy=0;exitX=1;exitY=0.5;exitDx=0;exitDy=0;" parent="1" source="NqYPr9nM4gvlLxXtL_qy-109" target="CfH61lomtQ87uOwbVgtj-27" edge="1">
          <mxGeometry width="160" relative="1" as="geometry">
            <mxPoint x="1210" y="-455" as="sourcePoint" />
            <mxPoint x="820" y="-500" as="targetPoint" />
          </mxGeometry>
        </mxCell>
        <mxCell id="_TgnfqIB9Kr_B9WWtVEv-1" value="&amp;lt;&amp;lt;include&amp;gt;&amp;gt;" style="html=1;verticalAlign=bottom;labelBackgroundColor=none;endArrow=open;endFill=0;dashed=1;rounded=0;entryX=0;entryY=0.5;entryDx=0;entryDy=0;exitX=1;exitY=0.5;exitDx=0;exitDy=0;" parent="1" source="NqYPr9nM4gvlLxXtL_qy-64" target="CfH61lomtQ87uOwbVgtj-7" edge="1">
          <mxGeometry width="160" relative="1" as="geometry">
            <mxPoint x="880" y="-225" as="sourcePoint" />
            <mxPoint x="1228" y="-278" as="targetPoint" />
          </mxGeometry>
        </mxCell>
        <mxCell id="_TgnfqIB9Kr_B9WWtVEv-3" value="Xóa Sản Phẩm" style="ellipse;whiteSpace=wrap;html=1;" parent="1" vertex="1">
          <mxGeometry x="1230" y="1220" width="140" height="70" as="geometry" />
        </mxCell>
        <mxCell id="_TgnfqIB9Kr_B9WWtVEv-4" value="&amp;lt;&amp;lt;extend&amp;gt;&amp;gt;" style="html=1;verticalAlign=bottom;labelBackgroundColor=none;endArrow=open;endFill=0;dashed=1;rounded=0;entryX=1;entryY=0.5;entryDx=0;entryDy=0;exitX=0;exitY=0;exitDx=0;exitDy=0;" parent="1" source="_TgnfqIB9Kr_B9WWtVEv-3" target="NqYPr9nM4gvlLxXtL_qy-24" edge="1">
          <mxGeometry width="160" relative="1" as="geometry">
            <mxPoint x="1145" y="965" as="sourcePoint" />
            <mxPoint x="670" y="925" as="targetPoint" />
          </mxGeometry>
        </mxCell>
        <mxCell id="_TgnfqIB9Kr_B9WWtVEv-5" value="Xem danh sách sản phẩm" style="ellipse;whiteSpace=wrap;html=1;" parent="1" vertex="1">
          <mxGeometry x="1170" y="1320" width="140" height="70" as="geometry" />
        </mxCell>
        <mxCell id="_TgnfqIB9Kr_B9WWtVEv-6" value="&amp;lt;&amp;lt;extend&amp;gt;&amp;gt;" style="html=1;verticalAlign=bottom;labelBackgroundColor=none;endArrow=open;endFill=0;dashed=1;rounded=0;entryX=1;entryY=1;entryDx=0;entryDy=0;exitX=0;exitY=0.5;exitDx=0;exitDy=0;" parent="1" source="_TgnfqIB9Kr_B9WWtVEv-5" target="NqYPr9nM4gvlLxXtL_qy-24" edge="1">
          <mxGeometry width="160" relative="1" as="geometry">
            <mxPoint x="1111" y="1060" as="sourcePoint" />
            <mxPoint x="670" y="925" as="targetPoint" />
          </mxGeometry>
        </mxCell>
        <mxCell id="_TgnfqIB9Kr_B9WWtVEv-7" value="Xem chi tiết sản phẩm" style="ellipse;whiteSpace=wrap;html=1;" parent="1" vertex="1">
          <mxGeometry x="1000" y="930" width="140" height="70" as="geometry" />
        </mxCell>
        <mxCell id="_TgnfqIB9Kr_B9WWtVEv-8" value="&amp;lt;&amp;lt;extend&amp;gt;&amp;gt;" style="html=1;verticalAlign=bottom;labelBackgroundColor=none;endArrow=open;endFill=0;dashed=1;rounded=0;entryX=1;entryY=0;entryDx=0;entryDy=0;exitX=0;exitY=1;exitDx=0;exitDy=0;" parent="1" source="_TgnfqIB9Kr_B9WWtVEv-7" target="NqYPr9nM4gvlLxXtL_qy-24" edge="1">
          <mxGeometry x="0.0003" width="160" relative="1" as="geometry">
            <mxPoint x="1055" y="845" as="sourcePoint" />
            <mxPoint x="670" y="925" as="targetPoint" />
            <mxPoint as="offset" />
          </mxGeometry>
        </mxCell>
        <mxCell id="_TgnfqIB9Kr_B9WWtVEv-9" value="Tìm kiếm sản phẩm" style="ellipse;whiteSpace=wrap;html=1;" parent="1" vertex="1">
          <mxGeometry x="1060" y="1380" width="140" height="70" as="geometry" />
        </mxCell>
        <mxCell id="_TgnfqIB9Kr_B9WWtVEv-10" value="&amp;lt;&amp;lt;extend&amp;gt;&amp;gt;" style="html=1;verticalAlign=bottom;labelBackgroundColor=none;endArrow=open;endFill=0;dashed=1;rounded=0;entryX=1;entryY=1;entryDx=0;entryDy=0;exitX=0;exitY=0;exitDx=0;exitDy=0;" parent="1" source="_TgnfqIB9Kr_B9WWtVEv-9" target="NqYPr9nM4gvlLxXtL_qy-24" edge="1">
          <mxGeometry width="160" relative="1" as="geometry">
            <mxPoint x="1050" y="1165" as="sourcePoint" />
            <mxPoint x="649" y="950" as="targetPoint" />
          </mxGeometry>
        </mxCell>
        <mxCell id="_TgnfqIB9Kr_B9WWtVEv-11" style="edgeStyle=orthogonalEdgeStyle;rounded=0;orthogonalLoop=1;jettySize=auto;html=1;exitX=0.5;exitY=1;exitDx=0;exitDy=0;" parent="1" source="_TgnfqIB9Kr_B9WWtVEv-5" target="_TgnfqIB9Kr_B9WWtVEv-5" edge="1">
          <mxGeometry relative="1" as="geometry" />
        </mxCell>
        <mxCell id="_TgnfqIB9Kr_B9WWtVEv-12" value="Đăng nhập qua link" style="ellipse;whiteSpace=wrap;html=1;" parent="1" vertex="1">
          <mxGeometry x="800" y="800" width="140" height="70" as="geometry" />
        </mxCell>
        <mxCell id="_TgnfqIB9Kr_B9WWtVEv-14" value="&amp;lt;&amp;lt;extend&amp;gt;&amp;gt;" style="html=1;verticalAlign=bottom;labelBackgroundColor=none;endArrow=open;endFill=0;dashed=1;rounded=0;entryX=1;entryY=0.5;entryDx=0;entryDy=0;exitX=0;exitY=0.5;exitDx=0;exitDy=0;" parent="1" source="_TgnfqIB9Kr_B9WWtVEv-12" target="NqYPr9nM4gvlLxXtL_qy-95" edge="1">
          <mxGeometry x="0.0003" width="160" relative="1" as="geometry">
            <mxPoint x="1001" y="1030" as="sourcePoint" />
            <mxPoint x="619" y="1050" as="targetPoint" />
            <mxPoint as="offset" />
          </mxGeometry>
        </mxCell>
        <mxCell id="_TgnfqIB9Kr_B9WWtVEv-15" value="Nhập Pasword Mới" style="ellipse;whiteSpace=wrap;html=1;" parent="1" vertex="1">
          <mxGeometry x="1080" y="820" width="140" height="70" as="geometry" />
        </mxCell>
        <mxCell id="_TgnfqIB9Kr_B9WWtVEv-16" style="edgeStyle=orthogonalEdgeStyle;rounded=0;orthogonalLoop=1;jettySize=auto;html=1;exitX=0.5;exitY=1;exitDx=0;exitDy=0;" parent="1" source="_TgnfqIB9Kr_B9WWtVEv-12" target="_TgnfqIB9Kr_B9WWtVEv-12" edge="1">
          <mxGeometry relative="1" as="geometry" />
        </mxCell>
        <mxCell id="_TgnfqIB9Kr_B9WWtVEv-18" value="&amp;lt;&amp;lt;include&amp;gt;&amp;gt;" style="html=1;verticalAlign=bottom;labelBackgroundColor=none;endArrow=open;endFill=0;dashed=1;rounded=0;entryX=0;entryY=0.5;entryDx=0;entryDy=0;exitX=1;exitY=0.5;exitDx=0;exitDy=0;" parent="1" source="_TgnfqIB9Kr_B9WWtVEv-12" target="_TgnfqIB9Kr_B9WWtVEv-15" edge="1">
          <mxGeometry width="160" relative="1" as="geometry">
            <mxPoint x="965" y="795" as="sourcePoint" />
            <mxPoint x="1124" y="795" as="targetPoint" />
          </mxGeometry>
        </mxCell>
        <mxCell id="_TgnfqIB9Kr_B9WWtVEv-23" value="Xem danh sách nhân viên" style="ellipse;whiteSpace=wrap;html=1;" parent="1" vertex="1">
          <mxGeometry x="780" y="1850" width="140" height="70" as="geometry" />
        </mxCell>
        <mxCell id="_TgnfqIB9Kr_B9WWtVEv-24" value="&amp;lt;&amp;lt;extend&amp;gt;&amp;gt;" style="html=1;verticalAlign=bottom;labelBackgroundColor=none;endArrow=open;endFill=0;dashed=1;rounded=0;entryX=1;entryY=0.5;entryDx=0;entryDy=0;exitX=0;exitY=0.5;exitDx=0;exitDy=0;" parent="1" source="_TgnfqIB9Kr_B9WWtVEv-23" target="NqYPr9nM4gvlLxXtL_qy-27" edge="1">
          <mxGeometry width="160" relative="1" as="geometry">
            <mxPoint x="620" y="1000" as="sourcePoint" />
            <mxPoint x="570" y="1640" as="targetPoint" />
          </mxGeometry>
        </mxCell>
        <mxCell id="_TgnfqIB9Kr_B9WWtVEv-25" value="Xem thông tin chi tiêt của nhân viên" style="ellipse;whiteSpace=wrap;html=1;" parent="1" vertex="1">
          <mxGeometry x="605" y="1890" width="135" height="70" as="geometry" />
        </mxCell>
        <mxCell id="_TgnfqIB9Kr_B9WWtVEv-26" value="&amp;lt;&amp;lt;extend&amp;gt;&amp;gt;" style="html=1;verticalAlign=bottom;labelBackgroundColor=none;endArrow=open;endFill=0;dashed=1;rounded=0;entryX=1;entryY=0.5;entryDx=0;entryDy=0;exitX=0;exitY=0.5;exitDx=0;exitDy=0;" parent="1" source="_TgnfqIB9Kr_B9WWtVEv-25" target="NqYPr9nM4gvlLxXtL_qy-27" edge="1">
          <mxGeometry width="160" relative="1" as="geometry">
            <mxPoint x="550" y="1035" as="sourcePoint" />
            <mxPoint x="560" y="1620" as="targetPoint" />
          </mxGeometry>
        </mxCell>
        <mxCell id="_TgnfqIB9Kr_B9WWtVEv-29" style="edgeStyle=orthogonalEdgeStyle;rounded=0;orthogonalLoop=1;jettySize=auto;html=1;exitX=0.5;exitY=1;exitDx=0;exitDy=0;" parent="1" edge="1">
          <mxGeometry relative="1" as="geometry">
            <mxPoint x="840" y="585" as="sourcePoint" />
            <mxPoint x="840" y="585" as="targetPoint" />
          </mxGeometry>
        </mxCell>
        <mxCell id="_TgnfqIB9Kr_B9WWtVEv-30" value="" style="endArrow=none;html=1;rounded=0;entryX=0;entryY=0.5;entryDx=0;entryDy=0;exitX=0.5;exitY=0.5;exitDx=0;exitDy=0;exitPerimeter=0;" parent="1" source="NqYPr9nM4gvlLxXtL_qy-1" target="NqYPr9nM4gvlLxXtL_qy-90" edge="1">
          <mxGeometry width="50" height="50" relative="1" as="geometry">
            <mxPoint x="145" y="110" as="sourcePoint" />
            <mxPoint x="530" y="815" as="targetPoint" />
          </mxGeometry>
        </mxCell>
        <mxCell id="_TgnfqIB9Kr_B9WWtVEv-31" style="edgeStyle=orthogonalEdgeStyle;rounded=0;orthogonalLoop=1;jettySize=auto;html=1;exitX=0.5;exitY=1;exitDx=0;exitDy=0;" parent="1" source="CfH61lomtQ87uOwbVgtj-9" target="CfH61lomtQ87uOwbVgtj-9" edge="1">
          <mxGeometry relative="1" as="geometry" />
        </mxCell>
        <mxCell id="_TgnfqIB9Kr_B9WWtVEv-32" value="Sửa loại sản phẩm" style="ellipse;whiteSpace=wrap;html=1;" parent="1" vertex="1">
          <mxGeometry x="590" y="1470" width="140" height="70" as="geometry" />
        </mxCell>
        <mxCell id="_TgnfqIB9Kr_B9WWtVEv-34" value="&amp;lt;&amp;lt;extend&amp;gt;&amp;gt;" style="html=1;verticalAlign=bottom;labelBackgroundColor=none;endArrow=open;endFill=0;dashed=1;rounded=0;exitX=0.5;exitY=0;exitDx=0;exitDy=0;entryX=1;entryY=1;entryDx=0;entryDy=0;" parent="1" source="_TgnfqIB9Kr_B9WWtVEv-32" target="NqYPr9nM4gvlLxXtL_qy-69" edge="1">
          <mxGeometry width="160" relative="1" as="geometry">
            <mxPoint x="760" y="1495" as="sourcePoint" />
            <mxPoint x="705" y="1315" as="targetPoint" />
          </mxGeometry>
        </mxCell>
      </root>
    </mxGraphModel>
  </diagram>
</mxfile>
